<svg width="142" height="140" viewBox="0 0 142 140" fill="none" xmlns="http://www.w3.org/2000/svg">
<g filter="url(#filter0_d_2512_38966)">
<path d="M125.452 66C125.452 95.539 101.077 119.5 70.9907 119.5C40.9042 119.5 16.5293 95.539 16.5293 66C16.5293 36.461 40.9042 12.5 70.9907 12.5C101.077 12.5 125.452 36.461 125.452 66Z" fill="white" stroke="white"/>
<mask id="mask0_2512_38966" style="mask-type:alpha" maskUnits="userSpaceOnUse" x="16" y="12" width="110" height="108">
<path d="M125.452 66C125.452 95.539 101.077 119.5 70.9907 119.5C40.9042 119.5 16.5293 95.539 16.5293 66C16.5293 36.461 40.9042 12.5 70.9907 12.5C101.077 12.5 125.452 36.461 125.452 66Z" fill="#F9F9F9" stroke="#EEEEF0"/>
</mask>
<g mask="url(#mask0_2512_38966)">
<path d="M12.4258 40.3281H50.251C50.9885 40.3772 51.6765 40.7122 52.1649 41.2603C52.6534 41.8083 52.9027 42.5249 52.8585 43.2537V88.6005C52.9028 89.331 52.654 90.0494 52.1659 90.5999C51.6779 91.1505 50.9899 91.489 50.251 91.542H12.4258" stroke="#08A4D7" stroke-width="2" stroke-linecap="round" stroke-linejoin="round"/>
<path d="M53.2773 48.741L70.1619 46.8012C70.5014 46.7949 70.8389 46.855 71.1548 46.978C71.4708 47.1011 71.759 47.2846 72.0028 47.5181C72.2467 47.7516 72.4414 48.0304 72.5757 48.3385C72.71 48.6467 72.7813 48.978 72.7855 49.3134L73.0269 83.244C73.0101 83.916 72.7246 84.554 72.2331 85.0188C71.7415 85.4836 71.0837 85.7372 70.4033 85.7244L53.2773 83.244" stroke="#08A4D7" stroke-width="2" stroke-linecap="round" stroke-linejoin="round"/>
<path d="M99.344 52.5898H73.0273V79.5721H99.344V52.5898Z" stroke="#08A4D7" stroke-width="2" stroke-linecap="round" stroke-linejoin="round"/>
<path d="M73.0273 72.8125L82.878 79.5859" stroke="#08A4D7" stroke-linecap="round" stroke-linejoin="round"/>
<path d="M73.0273 65.9297L92.278 79.5878" stroke="#08A4D7" stroke-linecap="round" stroke-linejoin="round"/>
<path d="M73.0273 58.0742L99.344 78.2036" stroke="#08A4D7" stroke-linecap="round" stroke-linejoin="round"/>
<path d="M77.3242 52.5898L99.3433 69.8254" stroke="#08A4D7" stroke-linecap="round" stroke-linejoin="round"/>
<path d="M88.332 52.5898L98.4724 61.2076" stroke="#08A4D7" stroke-linecap="round" stroke-linejoin="round"/>
<path d="M117.856 61.9688H100.086V70.5865H117.856V61.9688Z" stroke="#08A4D7" stroke-width="2" stroke-linecap="round" stroke-linejoin="round"/>
</g>
</g>
<defs>
<filter id="filter0_d_2512_38966" x="0.0292969" y="0" width="141.922" height="140" filterUnits="userSpaceOnUse" color-interpolation-filters="sRGB">
<feFlood flood-opacity="0" result="BackgroundImageFix"/>
<feColorMatrix in="SourceAlpha" type="matrix" values="0 0 0 0 0 0 0 0 0 0 0 0 0 0 0 0 0 0 127 0" result="hardAlpha"/>
<feOffset dy="4"/>
<feGaussianBlur stdDeviation="8"/>
<feColorMatrix type="matrix" values="0 0 0 0 0 0 0 0 0 0 0 0 0 0 0 0 0 0 0.08 0"/>
<feBlend mode="multiply" in2="BackgroundImageFix" result="effect1_dropShadow_2512_38966"/>
<feBlend mode="normal" in="SourceGraphic" in2="effect1_dropShadow_2512_38966" result="shape"/>
</filter>
</defs>
</svg>
