<svg width="140" height="141" viewBox="0 0 140 141" fill="none" xmlns="http://www.w3.org/2000/svg">
<g filter="url(#filter0_d_2512_39081)">
<ellipse cx="70.3788" cy="66.5" rx="53.621" ry="54.5" fill="#F9F9F9"/>
<path d="M123.5 66.5C123.5 96.3311 99.709 120.5 70.3788 120.5C41.0485 120.5 17.2578 96.3311 17.2578 66.5C17.2578 36.6689 41.0485 12.5 70.3788 12.5C99.709 12.5 123.5 36.6689 123.5 66.5Z" stroke="#EEEEF0"/>
</g>
<mask id="mask0_2512_39081" style="mask-type:alpha" maskUnits="userSpaceOnUse" x="15" y="44" width="102" height="45">
<g clip-path="url(#clip0_2512_39081)">
<path d="M16.2129 61.4609H72.0033C73.3641 61.4609 74.4558 63.2063 74.4558 65.545V82.9983C74.4558 85.2498 73.3641 87.0649 72.0033 87.0649H16.2129" stroke="#606161" stroke-width="2" stroke-linecap="round" stroke-linejoin="round"/>
<path d="M16.2129 45.4541H72.0033C72.3171 45.4448 72.6295 45.5038 72.9226 45.6277C73.2157 45.7516 73.4838 45.9381 73.7115 46.1763C73.9393 46.4146 74.1222 46.7 74.25 47.0163C74.3777 47.3326 74.4476 47.6736 74.4558 48.0197V58.9804C74.4476 59.3257 74.3776 59.6659 74.2497 59.9812C74.1218 60.2966 73.9386 60.5809 73.7106 60.8178C73.4826 61.0546 73.2144 61.2394 72.9214 61.3614C72.6283 61.4834 72.3163 61.5402 72.0033 61.5286H16.2129" stroke="#606161" stroke-width="2" stroke-linecap="round" stroke-linejoin="round"/>
<path d="M74.457 67.5703H96.3713V81.0268H74.457" stroke="#606161" stroke-width="2" stroke-linecap="round" stroke-linejoin="round"/>
<path d="M74.457 50.1641H115.738V55.8713H74.457" stroke="#606161" stroke-width="2" stroke-linecap="round" stroke-linejoin="round"/>
<path d="M96.3691 70.5703H108.189" stroke="#606161" stroke-linecap="round" stroke-linejoin="round"/>
<path d="M96.3691 74.3047H110.388" stroke="#606161" stroke-linecap="round" stroke-linejoin="round"/>
<path d="M96.3691 78.0195H108.189" stroke="#606161" stroke-linecap="round" stroke-linejoin="round"/>
<path d="M74.457 83.0672C74.457 83.0672 77.3051 82.3516 82.3683 85.1267C87.4315 87.9018 97.2257 87.1338 97.2257 87.1338" stroke="#606161" stroke-linecap="round" stroke-linejoin="round"/>
</g>
</mask>
<g mask="url(#mask0_2512_39081)">
<ellipse cx="70.3788" cy="62.0312" rx="53.621" ry="54.5" fill="#08A4D7"/>
</g>
<defs>
<filter id="filter0_d_2512_39081" x="0.757812" y="0" width="139.242" height="141" filterUnits="userSpaceOnUse" color-interpolation-filters="sRGB">
<feFlood flood-opacity="0" result="BackgroundImageFix"/>
<feColorMatrix in="SourceAlpha" type="matrix" values="0 0 0 0 0 0 0 0 0 0 0 0 0 0 0 0 0 0 127 0" result="hardAlpha"/>
<feOffset dy="4"/>
<feGaussianBlur stdDeviation="8"/>
<feColorMatrix type="matrix" values="0 0 0 0 0 0 0 0 0 0 0 0 0 0 0 0 0 0 0.08 0"/>
<feBlend mode="multiply" in2="BackgroundImageFix" result="effect1_dropShadow_2512_39081"/>
<feBlend mode="normal" in="SourceGraphic" in2="effect1_dropShadow_2512_39081" result="shape"/>
</filter>
<clipPath id="clip0_2512_39081">
<rect width="101.968" height="44.6721" fill="white" transform="translate(15 44.1641)"/>
</clipPath>
</defs>
</svg>
