<svg width="141" height="141" viewBox="0 0 141 141" fill="none" xmlns="http://www.w3.org/2000/svg">
<g filter="url(#filter0_d_2512_39011)">
<circle cx="70.5" cy="66.5" r="54.5" fill="#F9F9F9"/>
<circle cx="70.5" cy="66.5" r="54" stroke="#EEEEF0"/>
</g>
<mask id="mask0_2512_39011" style="mask-type:alpha" maskUnits="userSpaceOnUse" x="19" y="39" width="99" height="54">
<g clip-path="url(#clip0_2512_39011)">
<path d="M20.3594 43.9727H60.4637C61.1981 43.9727 61.9024 44.2615 62.4217 44.7756C62.941 45.2897 63.2327 45.987 63.2327 46.7141V89.1762C63.2327 89.9046 62.9415 90.6035 62.4226 91.12C61.9038 91.6365 61.1995 91.9287 60.4637 91.9327H20.3594" stroke="#606161" stroke-width="2" stroke-linecap="round" stroke-linejoin="round"/>
<path d="M63.4114 49.0425L82.1215 46.9531C82.5024 46.9531 82.8796 47.0239 83.2313 47.1613C83.5831 47.2987 83.9025 47.5001 84.1711 47.7539C84.4397 48.0077 84.6523 48.3089 84.7967 48.6402C84.941 48.9715 85.0142 49.3263 85.0121 49.6842L85.298 86.994C85.2855 87.7105 84.9738 88.3937 84.4301 88.8963C83.8863 89.3988 83.1541 89.6804 82.3915 89.6803L63.332 86.9641" stroke="#606161" stroke-width="2" stroke-linecap="round" stroke-linejoin="round"/>
<path d="M86.5977 67.9961H116.68" stroke="#606161" stroke-width="2" stroke-linecap="round" stroke-linejoin="round"/>
<path d="M86.5977 52.7422H111.423" stroke="#606161" stroke-width="2" stroke-linecap="round" stroke-linejoin="round"/>
<path d="M86.5977 83.7383H111.423" stroke="#606161" stroke-width="2" stroke-linecap="round" stroke-linejoin="round"/>
<path d="M86.5977 60.2539H116.68" stroke="#606161" stroke-width="2" stroke-linecap="round" stroke-linejoin="round"/>
<path d="M86.5977 75.875H116.68" stroke="#606161" stroke-width="2" stroke-linecap="round" stroke-linejoin="round"/>
<path d="M62.5039 45.6703C62.5039 45.6703 87.2018 42.5064 91.4742 40.7305" stroke="#606161" stroke-width="2" stroke-linecap="round" stroke-linejoin="round"/>
</g>
</mask>
<g mask="url(#mask0_2512_39011)">
<circle cx="70.5" cy="66.5" r="54.5" fill="#08A4D7"/>
</g>
<defs>
<filter id="filter0_d_2512_39011" x="0" y="0" width="141" height="141" filterUnits="userSpaceOnUse" color-interpolation-filters="sRGB">
<feFlood flood-opacity="0" result="BackgroundImageFix"/>
<feColorMatrix in="SourceAlpha" type="matrix" values="0 0 0 0 0 0 0 0 0 0 0 0 0 0 0 0 0 0 127 0" result="hardAlpha"/>
<feOffset dy="4"/>
<feGaussianBlur stdDeviation="8"/>
<feColorMatrix type="matrix" values="0 0 0 0 0 0 0 0 0 0 0 0 0 0 0 0 0 0 0.08 0"/>
<feBlend mode="multiply" in2="BackgroundImageFix" result="effect1_dropShadow_2512_39011"/>
<feBlend mode="normal" in="SourceGraphic" in2="effect1_dropShadow_2512_39011" result="shape"/>
</filter>
<clipPath id="clip0_2512_39011">
<rect width="98.1" height="53.0467" fill="white" transform="translate(19.6328 39.6133)"/>
</clipPath>
</defs>
</svg>
