<svg id="Camada_1" data-name="Camada 1" xmlns="http://www.w3.org/2000/svg" viewBox="0 0 70 70"><defs><style>.cls-1,.cls-3,.cls-4{fill:none;stroke:#606161;}.cls-1,.cls-2,.cls-3,.cls-4{stroke-linejoin:round;}.cls-1,.cls-2,.cls-3{stroke-width:2px;}.cls-2{fill:#ec1d3c;stroke:#ec1d3c;}.cls-2,.cls-3,.cls-4{stroke-linecap:round;}</style></defs><rect class="cls-1" x="2.81" y="15" width="42.52" height="15.3"/><circle class="cls-2" cx="10.54" cy="22.65" r="2.39"/><circle class="cls-2" cx="37.08" cy="22.65" r="2.39"/><line class="cls-3" x1="24.06" y1="15" x2="24.06" y2="30.3"/><line class="cls-3" x1="16.97" y1="15" x2="16.97" y2="30.3"/><line class="cls-3" x1="31.15" y1="15.56" x2="31.15" y2="30"/><rect class="cls-1" x="9.89" y="39.14" width="42.52" height="15.3"/><circle class="cls-2" cx="17.62" cy="46.79" r="2.39"/><circle class="cls-2" cx="44.16" cy="46.79" r="2.39"/><line class="cls-3" x1="31.15" y1="39.14" x2="31.15" y2="54.44"/><line class="cls-3" x1="24.05" y1="39.14" x2="24.05" y2="54.44"/><line class="cls-3" x1="38.23" y1="39.7" x2="38.23" y2="54"/><circle class="cls-4" cx="56.73" cy="22.65" r="2.77"/><line class="cls-4" x1="56.73" y1="19.88" x2="56.73" y2="25.42"/><line class="cls-4" x1="53.96" y1="22.65" x2="59.5" y2="22.65"/><circle class="cls-4" cx="64.43" cy="30.86" r="2.77"/><line class="cls-4" x1="64.43" y1="28.09" x2="64.43" y2="33.62"/><line class="cls-4" x1="61.66" y1="30.86" x2="67.19" y2="30.86"/></svg>