<svg width="58" height="58" viewBox="0 0 58 58" fill="none" xmlns="http://www.w3.org/2000/svg">
<path d="M23.382 43.3191H1.36016C0.816406 43.3191 0.363281 42.866 0.363281 42.3223C0.363281 41.7785 0.816406 41.3254 1.36016 41.3254H23.382C23.6539 41.3254 23.9258 41.0535 23.9258 40.7816V17.2191C23.9258 16.9473 23.6539 16.6754 23.382 16.6754H1.36016C0.816406 16.6754 0.363281 16.2223 0.363281 15.6785C0.363281 15.1348 0.816406 14.6816 1.36016 14.6816H23.382C24.7414 14.6816 25.9195 15.7691 25.9195 17.2191V40.7816C25.9195 42.141 24.832 43.3191 23.382 43.3191Z" fill="#616262"/>
<path d="M35.0723 40.6004H25.1941C24.6504 40.6004 24.1973 40.1473 24.1973 39.6035C24.1973 39.0598 24.6504 38.6066 25.1941 38.6066H35.0723C35.3441 38.6066 35.616 38.3348 35.616 38.0629V19.9379C35.616 19.666 35.3441 19.3941 35.0723 19.3941H25.1941C24.6504 19.3941 24.1973 18.941 24.1973 18.3973C24.1973 17.8535 24.6504 17.4004 25.1941 17.4004H35.0723C36.4316 17.4004 37.6098 18.4879 37.6098 19.9379V38.0629C37.5191 39.5129 36.4316 40.6004 35.0723 40.6004Z" fill="#616262"/>
<path d="M54.6488 31.991C53.0176 31.991 51.6582 30.6316 51.6582 29.0004C51.6582 27.3691 53.0176 26.0098 54.6488 26.0098C56.2801 26.0098 57.6395 27.3691 57.6395 29.0004C57.6395 30.6316 56.2801 31.991 54.6488 31.991ZM54.6488 27.3691C53.7426 27.3691 53.0176 28.0941 53.0176 29.0004C53.0176 29.9066 53.7426 30.6316 54.6488 30.6316C55.5551 30.6316 56.2801 29.9066 56.2801 29.0004C56.2801 28.0941 55.5551 27.3691 54.6488 27.3691Z" fill="#616262"/>
<path d="M52.2922 28.0039H36.5234V29.9977H52.2922V28.0039Z" fill="#616262"/>
<path d="M49.3012 25.4656C47.6699 25.4656 46.3105 24.1062 46.3105 22.475C46.3105 20.8437 47.6699 19.4844 49.3012 19.4844C50.9324 19.4844 52.2918 20.8437 52.2918 22.475C52.2918 24.1062 50.9324 25.4656 49.3012 25.4656ZM49.3012 20.8438C48.3949 20.8438 47.6699 21.5687 47.6699 22.475C47.6699 23.3812 48.3949 24.1063 49.3012 24.1063C50.2074 24.1063 50.9324 23.3812 50.9324 22.475C50.9324 21.5687 50.2074 20.8438 49.3012 20.8438Z" fill="#616262"/>
<path d="M46.9453 21.4785H36.5234V23.4723H46.9453V21.4785Z" fill="#616262"/>
<path d="M49.3012 38.4246C47.6699 38.4246 46.3105 37.0652 46.3105 35.434C46.3105 33.8027 47.6699 32.4434 49.3012 32.4434C50.9324 32.4434 52.2918 33.8027 52.2918 35.434C52.2012 37.1559 50.9324 38.4246 49.3012 38.4246ZM49.3012 33.8934C48.3949 33.8934 47.6699 34.6184 47.6699 35.5246C47.6699 36.4309 48.3949 37.1559 49.3012 37.1559C50.2074 37.1559 50.9324 36.4309 50.9324 35.5246C50.9324 34.6184 50.2074 33.8934 49.3012 33.8934Z" fill="#616262"/>
<path d="M46.9453 34.5273H36.5234V36.5211H46.9453V34.5273Z" fill="#616262"/>
</svg>
