<?xml version="1.0" encoding="utf-8"?>
<!-- Generator: Adobe Illustrator 25.2.1, SVG Export Plug-In . SVG Version: 6.00 Build 0)  -->
<svg version="1.1" id="Layer_1" xmlns="http://www.w3.org/2000/svg" xmlns:xlink="http://www.w3.org/1999/xlink" x="0px" y="0px"
	 viewBox="0 0 64 64" style="enable-background:new 0 0 64 64;" xml:space="preserve">
<style type="text/css">
	.st0{fill:#616262;}
	.st1{fill:#EB203D;}
	.st2{fill:#616262;stroke:#616262;stroke-width:2.1976;stroke-linecap:round;stroke-linejoin:round;stroke-miterlimit:10;}
</style>
<g>
	<path class="st0" d="M25.8,47.8H1.5c-0.6,0-1.1-0.5-1.1-1.1s0.5-1.1,1.1-1.1h24.3c0.3,0,0.6-0.3,0.6-0.6V19c0-0.3-0.3-0.6-0.6-0.6
		H1.5c-0.6,0-1.1-0.5-1.1-1.1s0.5-1.1,1.1-1.1h24.3c1.5,0,2.8,1.2,2.8,2.8v26C28.6,46.5,27.4,47.8,25.8,47.8z"/>
	<path class="st0" d="M38.7,44.8H27.8c-0.6,0-1.1-0.5-1.1-1.1s0.5-1.1,1.1-1.1h10.9c0.3,0,0.6-0.3,0.6-0.6V22c0-0.3-0.3-0.6-0.6-0.6
		H27.8c-0.6,0-1.1-0.5-1.1-1.1s0.5-1.1,1.1-1.1h10.9c1.5,0,2.8,1.2,2.8,2.8v20C41.4,43.6,40.2,44.8,38.7,44.8z"/>
	<g>
		<path class="st0" d="M60.3,35.3c-1.8,0-3.3-1.5-3.3-3.3c0-1.8,1.5-3.3,3.3-3.3c1.8,0,3.3,1.5,3.3,3.3
			C63.6,33.8,62.1,35.3,60.3,35.3z M60.3,30.2c-1,0-1.8,0.8-1.8,1.8s0.8,1.8,1.8,1.8s1.8-0.8,1.8-1.8S61.3,30.2,60.3,30.2z"/>
		<rect x="40.3" y="30.9" class="st0" width="17.4" height="2.2"/>
		<g>
			<g>
				<path class="st0" d="M54.4,28.1c-1.8,0-3.3-1.5-3.3-3.3s1.5-3.3,3.3-3.3c1.8,0,3.3,1.5,3.3,3.3S56.2,28.1,54.4,28.1z M54.4,23
					c-1,0-1.8,0.8-1.8,1.8s0.8,1.8,1.8,1.8s1.8-0.8,1.8-1.8S55.4,23,54.4,23z"/>
				<rect x="40.3" y="23.7" class="st0" width="11.5" height="2.2"/>
			</g>
			<g>
				<path class="st0" d="M54.4,42.4c-1.8,0-3.3-1.5-3.3-3.3c0-1.8,1.5-3.3,3.3-3.3c1.8,0,3.3,1.5,3.3,3.3
					C57.6,41,56.2,42.4,54.4,42.4z M54.4,37.4c-1,0-1.8,0.8-1.8,1.8s0.8,1.8,1.8,1.8s1.8-0.8,1.8-1.8S55.4,37.4,54.4,37.4z"/>
				<rect x="40.3" y="38.1" class="st0" width="11.5" height="2.2"/>
			</g>
		</g>
	</g>
</g>
</svg>
