<svg id="Camada_1" data-name="Camada 1" xmlns="http://www.w3.org/2000/svg" viewBox="0 0 70 70"><defs><style>.cls-1{fill:none;stroke:#58595b;stroke-miterlimit:10;stroke-width:2px;}</style></defs><path class="cls-1" d="M20.33,44.67V8.83C20.33,5.05,23.69,2,27.84,2H42.16c4.15,0,7.51,3.05,7.51,6.83V44.67"/><path class="cls-1" d="M31.55,44.67H51.24a2.6,2.6,0,0,1,2.43,2.74v3.84A2.61,2.61,0,0,1,51.24,54H31.55"/><line class="cls-1" x1="34.33" y1="44.67" x2="31.27" y2="44.67"/><line class="cls-1" x1="34.33" y1="54" x2="31.27" y2="54"/><path class="cls-1" d="M25.4,54H18.91a2.66,2.66,0,0,1-2.58-2.75V47.41a2.66,2.66,0,0,1,2.58-2.74H25.4"/><path class="cls-1" d="M38.33,54V66.21A1.79,1.79,0,0,1,36.55,68h-3.1a1.79,1.79,0,0,1-1.78-1.79V54"/><path class="cls-1" d="M46.33,54V66.21A1.79,1.79,0,0,1,44.55,68h-3.1a1.79,1.79,0,0,1-1.78-1.79V54"/><path class="cls-1" d="M30.33,54.6V66.21A1.79,1.79,0,0,1,28.55,68h-3.1a1.79,1.79,0,0,1-1.78-1.79V54"/><line class="cls-1" x1="20.33" y1="39.11" x2="49.67" y2="39.11"/><line class="cls-1" x1="20.33" y1="29.11" x2="49.67" y2="29.11"/><line class="cls-1" x1="20.33" y1="21.78" x2="49.67" y2="21.78"/><line class="cls-1" x1="20.33" y1="16" x2="49.67" y2="16"/><line class="cls-1" x1="20.33" y1="10.22" x2="49.67" y2="10.22"/><rect class="cls-1" x="25" y="44" width="6.67" height="10.67" rx="0.56"/></svg>