<?xml version="1.0" encoding="utf-8"?>
<!-- Generator: Adobe Illustrator 25.2.1, SVG Export Plug-In . SVG Version: 6.00 Build 0)  -->
<svg version="1.1" id="Layer_1" xmlns="http://www.w3.org/2000/svg" xmlns:xlink="http://www.w3.org/1999/xlink" x="0px" y="0px"
	 viewBox="0 0 64 64" style="enable-background:new 0 0 64 64;" xml:space="preserve">
<style type="text/css">
	.st0{fill:#616262;}
	.st1{fill:#EB203D;}
</style>
<g>
	<g>
		<path class="st0" d="M58.6,26.5h-4.8c-0.6,0-1.1-0.5-1.1-1.1s0.5-1.1,1.1-1.1h4.8c0.6,0,1.1,0.5,1.1,1.1S59.2,26.5,58.6,26.5z"/>
		<path class="st0" d="M58.6,22.1h-4.8c-0.6,0-1.1-0.5-1.1-1.1s0.5-1.1,1.1-1.1h4.8c0.6,0,1.1,0.5,1.1,1.1S59.2,22.1,58.6,22.1z"/>
		<path class="st0" d="M30,28.6h-4.6c-0.6,0-1.1-0.5-1.1-1.1s0.5-1.1,1.1-1.1H30c0.6,0,1.1,0.5,1.1,1.1S30.7,28.6,30,28.6z"/>
		<g>
			<path class="st1" d="M30,20.9v6.6c0,0.8,0.7,1.5,1.5,1.5h20.9c0.8,0,1.5-0.7,1.5-1.5v-8.6c0-0.8-0.7-1.5-1.5-1.5h-8.6H30L30,20.9
				z"/>
			<path class="st1" d="M52.4,29.7H31.5c-1.2,0-2.2-1-2.2-2.2v-10c0-0.4,0.3-0.7,0.7-0.7h22.3c1.2,0,2.2,1,2.2,2.2v8.6
				C54.6,28.7,53.6,29.7,52.4,29.7z M30.8,18.2v9.3c0,0.4,0.3,0.7,0.7,0.7h20.9c0.4,0,0.7-0.3,0.7-0.7v-8.6c0-0.4-0.3-0.7-0.7-0.7
				H30.8z"/>
		</g>
		<path class="st0" d="M24,30H3.1c-1.4,0-2.6-1.1-2.6-2.6v-8.6c0-1.4,1.1-2.6,2.6-2.6H24c1.4,0,2.6,1.1,2.6,2.6c0,0.4-0.2,0.8-0.6,1
			c0.4,0.2,0.6,0.6,0.6,1v6.6C26.5,28.9,25.4,30,24,30z M3.1,18.5c-0.2,0-0.4,0.2-0.4,0.4v8.6c0,0.2,0.2,0.4,0.4,0.4H24
			c0.2,0,0.4-0.2,0.4-0.4v-6.6c0-0.4,0.2-0.8,0.6-1c-0.4-0.2-0.6-0.6-0.6-1c0-0.2-0.2-0.4-0.4-0.4H3.1z"/>
		<path class="st0" d="M28.6,23.4h-1.7c-1.4,0-2.6-1.1-2.6-2.6v-5.6c0-1.4,1.1-2.6,2.6-2.6h16.9c1.4,0,2.6,1.1,2.6,2.6V16
			c0,1.4-1.2,2.6-2.6,2.6H31.1v2.3C31.1,22.3,30,23.4,28.6,23.4z M26.9,14.9c-0.2,0-0.4,0.2-0.4,0.4v5.6c0,0.2,0.2,0.4,0.4,0.4h1.7
			c0.2,0,0.4-0.2,0.4-0.4v-3.4c0-0.6,0.5-1.1,1.1-1.1h13.7c0.2,0,0.4-0.2,0.4-0.4v-0.7c0-0.2-0.2-0.4-0.4-0.4H26.9z"/>
		<path class="st0" d="M19.7,26.1c-1.6,0-2.9-1.3-2.9-2.9s1.3-2.9,2.9-2.9s2.9,1.3,2.9,2.9S21.3,26.1,19.7,26.1z M19.7,21.7
			c-0.8,0-1.5,0.7-1.5,1.5c0,0.8,0.7,1.5,1.5,1.5c0.8,0,1.5-0.7,1.5-1.5C21.2,22.4,20.5,21.7,19.7,21.7z"/>
		<path class="st0" d="M62.3,28h-3.7c-0.6,0-1.1-0.5-1.1-1.1v-7.4c0-0.6,0.5-1.1,1.1-1.1h3.7c0.6,0,1.1,0.5,1.1,1.1v7.4
			C63.4,27.5,62.9,28,62.3,28z M59.7,25.8h1.5v-5.2h-1.5V25.8z"/>
	</g>
	<g>
		<path class="st0" d="M10.2,39.7H5.4c-0.6,0-1.1-0.5-1.1-1.1s0.5-1.1,1.1-1.1h4.8c0.6,0,1.1,0.5,1.1,1.1S10.8,39.7,10.2,39.7z"/>
		<path class="st0" d="M10.2,44.1H5.4c-0.6,0-1.1-0.5-1.1-1.1s0.5-1.1,1.1-1.1h4.8c0.6,0,1.1,0.5,1.1,1.1S10.8,44.1,10.2,44.1z"/>
		<path class="st0" d="M38.5,37.6H34c-0.6,0-1.1-0.5-1.1-1.1s0.5-1.1,1.1-1.1h4.6c0.6,0,1.1,0.5,1.1,1.1S39.2,37.6,38.5,37.6z"/>
		<g>
			<path class="st1" d="M34,43.1v-6.6c0-0.8-0.7-1.5-1.5-1.5H11.6c-0.8,0-1.5,0.7-1.5,1.5v8.6c0,0.8,0.7,1.5,1.5,1.5h8.6H34L34,43.1
				z"/>
			<path class="st1" d="M34,47.3H11.6c-1.2,0-2.2-1-2.2-2.2v-8.6c0-1.2,1-2.2,2.2-2.2h20.9c1.2,0,2.2,1,2.2,2.2l0,10
				c0,0.2-0.1,0.4-0.2,0.5C34.3,47.2,34.1,47.3,34,47.3z M11.6,35.8c-0.4,0-0.7,0.3-0.7,0.7v8.6c0,0.4,0.3,0.7,0.7,0.7h21.6l0-2.7
				l0,0v-6.6c0-0.4-0.3-0.7-0.7-0.7H11.6z"/>
		</g>
		<path class="st0" d="M60.9,47.7H40c-1.4,0-2.6-1.1-2.6-2.6c0-0.4,0.2-0.8,0.6-1c-0.4-0.2-0.6-0.6-0.6-1v-6.6
			c0-1.4,1.1-2.6,2.6-2.6h20.9c1.4,0,2.6,1.1,2.6,2.6v8.6C63.4,46.5,62.3,47.7,60.9,47.7z M39,44.1c0.4,0.2,0.6,0.6,0.6,1
			c0,0.2,0.2,0.4,0.4,0.4h20.9c0.2,0,0.4-0.2,0.4-0.4v-8.6c0-0.2-0.2-0.4-0.4-0.4H40c-0.2,0-0.4,0.2-0.4,0.4v6.6
			C39.6,43.6,39.4,43.9,39,44.1z"/>
		<path class="st0" d="M37.1,51.3H20.2c-1.4,0-2.6-1.1-2.6-2.6V48c0-1.4,1.1-2.6,2.6-2.6h12.6v-2.3c0-1.4,1.1-2.6,2.6-2.6h1.7
			c1.4,0,2.6,1.1,2.6,2.6v5.6C39.6,50.2,38.5,51.3,37.1,51.3z M20.2,47.7c-0.2,0-0.4,0.2-0.4,0.4v0.7c0,0.2,0.2,0.4,0.4,0.4h16.9
			c0.2,0,0.4-0.2,0.4-0.4v-5.6c0-0.2-0.2-0.4-0.4-0.4h-1.7c-0.2,0-0.4,0.2-0.4,0.4v3.4c0,0.6-0.5,1.1-1.1,1.1H20.2z"/>
		<path class="st0" d="M44.3,43.8c-1.6,0-2.9-1.3-2.9-2.9c0-1.6,1.3-2.9,2.9-2.9c1.6,0,2.9,1.3,2.9,2.9
			C47.2,42.4,45.9,43.8,44.3,43.8z M44.3,39.4c-0.8,0-1.5,0.7-1.5,1.5c0,0.8,0.7,1.5,1.5,1.5c0.8,0,1.5-0.7,1.5-1.5
			C45.8,40,45.1,39.4,44.3,39.4z"/>
		<path class="st0" d="M5.4,45.6H1.7c-0.6,0-1.1-0.5-1.1-1.1v-7.4c0-0.6,0.5-1.1,1.1-1.1h3.7c0.6,0,1.1,0.5,1.1,1.1v7.4
			C6.5,45.1,6,45.6,5.4,45.6z M2.8,43.4h1.5v-5.2H2.8V43.4z"/>
	</g>
</g>
</svg>
