<?xml version="1.0" encoding="utf-8"?>
<!-- Generator: Adobe Illustrator 25.2.1, SVG Export Plug-In . SVG Version: 6.00 Build 0)  -->
<svg version="1.1" id="Layer_1" xmlns="http://www.w3.org/2000/svg" xmlns:xlink="http://www.w3.org/1999/xlink" x="0px" y="0px"
	 viewBox="0 0 64 64" style="enable-background:new 0 0 64 64;" xml:space="preserve">
<style type="text/css">
	.st0{fill:#EB203D;}
	.st1{fill:#616262;}
	.st2{fill:#EB203D;stroke:#EB203D;stroke-width:2.9302;stroke-miterlimit:10;}
	.st3{fill:#EB203D;stroke:#EB203D;stroke-width:2.1976;stroke-linecap:round;stroke-linejoin:round;stroke-miterlimit:10;}
</style>
<g>
	<path class="st1" d="M49.7,62.8H14.3c-3.8,0-7-3.1-7-7V13.4c0-3.8,3.1-7,7-7h35.5c3.8,0,7,3.1,7,7v5.2c0,0.6-0.5,1.1-1.1,1.1
		s-1.1-0.5-1.1-1.1v-5.2c0-2.6-2.1-4.8-4.8-4.8H14.3c-2.6,0-4.8,2.1-4.8,4.8v42.5c0,2.6,2.1,4.8,4.8,4.8h35.5c2.6,0,4.8-2.1,4.8-4.8
		v-4.7c0-0.6,0.5-1.1,1.1-1.1s1.1,0.5,1.1,1.1v4.7C56.7,59.7,53.6,62.8,49.7,62.8z"/>
	<path class="st1" d="M46.7,56.8H17.3c-2.2,0-4-1.8-4-4V16.6c0-2.2,1.8-4,4-4h29.3c2.2,0,4,1.8,4,4v2c0,0.6-0.5,1.1-1.1,1.1
		s-1.1-0.5-1.1-1.1v-2c0-1-0.8-1.8-1.8-1.8H17.3c-1,0-1.8,0.8-1.8,1.8v36.2c0,1,0.8,1.8,1.8,1.8h29.3c1,0,1.8-0.8,1.8-1.8v-1.6
		c0-0.6,0.5-1.1,1.1-1.1s1.1,0.5,1.1,1.1v1.6C50.7,55,48.9,56.8,46.7,56.8z"/>
	<g>
		<path class="st1" d="M55.6,52.3h-7.5c-2.2,0-4-1.8-4-4v-4.1c0-0.6,0.5-1.1,1.1-1.1s1.1,0.5,1.1,1.1v4.1c0,1,0.8,1.8,1.8,1.8h6.4
			V19.7h-6.4c-1,0-1.8,0.8-1.8,1.8v3.6c0,0.6-0.5,1.1-1.1,1.1s-1.1-0.5-1.1-1.1v-3.6c0-2.2,1.8-4,4-4h7.5c0.6,0,1.1,0.5,1.1,1.1
			v32.6C56.7,51.8,56.2,52.3,55.6,52.3z"/>
	</g>
	<path class="st1" d="M23.4,8.7c-0.6,0-1.1-0.5-1.1-1.1V3.7c0-0.2-0.2-0.4-0.4-0.4h-6.2c-0.2,0-0.4,0.2-0.4,0.4v3.8
		c0,0.6-0.5,1.1-1.1,1.1s-1.1-0.5-1.1-1.1V3.7c0-1.4,1.1-2.6,2.6-2.6h6.2c1.4,0,2.6,1.1,2.6,2.6v3.8C24.5,8.2,24,8.7,23.4,8.7z"/>
	<path class="st1" d="M49.7,8.7c-0.6,0-1.1-0.5-1.1-1.1V3.7c0-0.2-0.2-0.4-0.4-0.4h-6.2c-0.2,0-0.4,0.2-0.4,0.4v3.8
		c0,0.6-0.5,1.1-1.1,1.1s-1.1-0.5-1.1-1.1V3.7c0-1.4,1.2-2.6,2.6-2.6h6.2c1.4,0,2.6,1.1,2.6,2.6v3.8C50.8,8.2,50.3,8.7,49.7,8.7z"/>
	<g>
		<path class="st0" d="M45.7,44.2h-1.1c-1.6,0-2.9-1.3-2.9-2.9V28c0-1.6,1.3-2.9,2.9-2.9h1.1c1.6,0,2.9,1.3,2.9,2.9v13.2
			C48.7,42.9,47.3,44.2,45.7,44.2z"/>
		<path class="st0" d="M45.7,45.3h-1.1c-2.2,0-4-1.8-4-4V28c0-2.2,1.8-4,4-4h1.1c2.2,0,4,1.8,4,4v13.2C49.8,43.5,48,45.3,45.7,45.3z
			 M44.7,26.2c-1,0-1.8,0.8-1.8,1.8v13.2c0,1,0.8,1.8,1.8,1.8h1.1c1,0,1.8-0.8,1.8-1.8V28c0-1-0.8-1.8-1.8-1.8H44.7z"/>
	</g>
</g>
</svg>
