<svg id="Camada_1" data-name="Camada 1" xmlns="http://www.w3.org/2000/svg" viewBox="0 0 70 70"><defs><style>.cls-1,.cls-2{fill:none;stroke:#606161;stroke-linecap:round;stroke-linejoin:round;}.cls-1{stroke-width:2px;}</style></defs><path class="cls-1" d="M66,47.2V56a1.5,1.5,0,0,1-1.5,1.5H62.84V54.9H57.69v2.57H11.82l0-2.58H7.07l0,2.58H5.5A1.5,1.5,0,0,1,4,56V47.2a1.53,1.53,0,0,1,1.5-1.51h59A1.53,1.53,0,0,1,66,47.2Z"/><line class="cls-1" x1="13.85" y1="40.89" x2="9.46" y2="45.7"/><line class="cls-1" x1="60.37" y1="45.7" x2="55.98" y2="40.89"/><circle class="cls-1" cx="14.98" cy="51.64" r="1.55"/><circle class="cls-1" cx="54.43" cy="51.59" r="1.55"/><rect class="cls-2" x="19.73" y="49.15" width="20.2" height="5.07"/><line class="cls-2" x1="23.67" y1="49.15" x2="23.67" y2="54.23"/><line class="cls-2" x1="27.81" y1="49.28" x2="27.81" y2="54.12"/><line class="cls-2" x1="31.85" y1="49.15" x2="31.85" y2="54.23"/><line class="cls-2" x1="35.79" y1="49.15" x2="35.79" y2="54.23"/><line class="cls-2" x1="19.73" y1="51.7" x2="39.93" y2="51.7"/><path class="cls-1" d="M66,30.61v8.78a1.5,1.5,0,0,1-1.5,1.5H62.84V38.32H57.69v2.58H11.82l0-2.58H7.07l0,2.58H5.5A1.5,1.5,0,0,1,4,39.39V30.61a1.52,1.52,0,0,1,1.5-1.5h59A1.52,1.52,0,0,1,66,30.61Z"/><line class="cls-1" x1="13.85" y1="24.31" x2="9.46" y2="29.11"/><line class="cls-1" x1="60.37" y1="29.11" x2="55.98" y2="24.31"/><circle class="cls-1" cx="14.98" cy="35.05" r="1.55"/><circle class="cls-1" cx="54.43" cy="35" r="1.55"/><rect class="cls-2" x="19.73" y="32.56" width="20.2" height="5.07"/><line class="cls-2" x1="23.67" y1="32.56" x2="23.67" y2="37.64"/><line class="cls-2" x1="27.81" y1="32.69" x2="27.81" y2="37.54"/><line class="cls-2" x1="31.85" y1="32.56" x2="31.85" y2="37.64"/><line class="cls-2" x1="35.79" y1="32.56" x2="35.79" y2="37.64"/><line class="cls-2" x1="19.73" y1="35.11" x2="39.93" y2="35.11"/><path class="cls-1" d="M66,14V22.8a1.51,1.51,0,0,1-1.5,1.51H62.84V21.73H57.69V24.3H11.82l0-2.59H7.07l0,2.59H5.5A1.51,1.51,0,0,1,4,22.8V14a1.52,1.52,0,0,1,1.5-1.5h59A1.52,1.52,0,0,1,66,14Z"/><circle class="cls-1" cx="14.98" cy="18.47" r="1.55"/><circle class="cls-1" cx="54.43" cy="18.41" r="1.55"/><rect class="cls-2" x="19.73" y="15.98" width="20.2" height="5.07"/><line class="cls-2" x1="23.67" y1="15.98" x2="23.67" y2="21.05"/><line class="cls-2" x1="27.81" y1="16.1" x2="27.81" y2="20.95"/><line class="cls-2" x1="31.85" y1="15.98" x2="31.85" y2="21.05"/><line class="cls-2" x1="35.79" y1="15.98" x2="35.79" y2="21.05"/><line class="cls-2" x1="19.73" y1="18.52" x2="39.93" y2="18.52"/></svg>