<svg id="Camada_1" data-name="Camada 1" xmlns="http://www.w3.org/2000/svg" viewBox="0 0 70 70"><defs><style>.cls-1,.cls-2{fill:none;stroke-width:2px;}.cls-1{stroke:#58595b;stroke-miterlimit:10;}.cls-2{stroke:#606161;stroke-linecap:round;stroke-linejoin:round;}</style></defs><polygon class="cls-1" points="46.02 46.48 44.97 43.49 40.12 38.62 24.71 44.27 30.21 49.78 31.26 52.78 46.02 46.48"/><path class="cls-1" d="M13.08,23.28l1.19,15.79,20-6.33V18.19l3.39-1.39V4.57C27.26-2.08,11.79,6.28,11.79,6.28"/><path class="cls-1" d="M34.25,32.73,46,39.07l1.08,5,11.14,7.27v6l-19.65,10c-2.78,1.39-4.31,0-4.31,0l-19-19.33-.92-9L22,45.26,43.07,37.5"/><polyline class="cls-1" points="22.01 45.26 24.72 47.74 26.8 53.46 35.16 61.66 58.21 51.29"/><polygon class="cls-2" points="13.08 23.28 16.44 20.54 15.51 7.36 11.8 6.28 13.08 23.28"/><line class="cls-1" x1="27.67" y1="54.3" x2="48.96" y2="45.26"/><polyline class="cls-1" points="34.22 51.42 33.16 48.42 27.67 42.91"/><polyline class="cls-1" points="37.17 50.06 36.11 47.07 30.94 41.87"/><polyline class="cls-1" points="40.12 48.7 39.06 45.71 34.16 40.78"/><polyline class="cls-1" points="43.07 47.35 42.02 44.35 37.17 39.48"/></svg>