<?xml version="1.0" encoding="utf-8"?>
<!-- Generator: Adobe Illustrator 25.2.1, SVG Export Plug-In . SVG Version: 6.00 Build 0)  -->
<svg version="1.1" id="Layer_1" xmlns="http://www.w3.org/2000/svg" xmlns:xlink="http://www.w3.org/1999/xlink" x="0px" y="0px"
	 viewBox="0 0 64 64" style="enable-background:new 0 0 64 64;" xml:space="preserve">
<style type="text/css">
	.st0{fill:#EB203D;}
	.st1{fill:#616262;}
	.st2{fill:#EB203D;stroke:#EB203D;stroke-width:2.9302;stroke-miterlimit:10;}
	.st3{fill:#EB203D;stroke:#EB203D;stroke-width:2.1976;stroke-linecap:round;stroke-linejoin:round;stroke-miterlimit:10;}
</style>
<g>
	<g>
		<path class="st0" d="M12.9,46.1V19c0-0.9-0.8-1.7-1.7-1.7h0c-0.9,0-1.7,0.8-1.7,1.7v27.1"/>
		<path class="st0" d="M12.9,47.2c-0.6,0-1.1-0.5-1.1-1.1V19c0-0.3-0.3-0.6-0.6-0.6s-0.6,0.3-0.6,0.6v27.1c0,0.6-0.5,1.1-1.1,1.1
			s-1.1-0.5-1.1-1.1V19c0-1.5,1.3-2.8,2.8-2.8S14,17.5,14,19v27.1C14,46.7,13.5,47.2,12.9,47.2z"/>
	</g>
	<g>
		<path class="st0" d="M56.1,46.1V19c0-0.9-0.8-1.7-1.7-1.7h0c-0.9,0-1.7,0.8-1.7,1.7v27.1"/>
		<path class="st0" d="M56.1,47.2c-0.6,0-1.1-0.5-1.1-1.1V19c0-0.3-0.3-0.6-0.6-0.6s-0.6,0.3-0.6,0.6v27.1c0,0.6-0.5,1.1-1.1,1.1
			s-1.1-0.5-1.1-1.1V19c0-1.5,1.3-2.8,2.8-2.8s2.8,1.3,2.8,2.8v27.1C57.2,46.7,56.8,47.2,56.1,47.2z"/>
	</g>
	<path class="st1" d="M59.3,62.7H4.7c-2.2,0-4-1.8-4-4V49c0-2.2,1.8-4,4-4h54.5c2.2,0,4,1.8,4,4v9.6C63.3,60.9,61.5,62.7,59.3,62.7z
		 M4.7,47.2c-1,0-1.8,0.8-1.8,1.8v9.6c0,1,0.8,1.8,1.8,1.8h54.5c1,0,1.8-0.8,1.8-1.8V49c0-1-0.8-1.8-1.8-1.8H4.7z"/>
	<g>
		<path class="st1" d="M19.9,55.2c-0.8,0-1.4-0.6-1.4-1.4s0.6-1.4,1.4-1.4s1.4,0.6,1.4,1.4S20.7,55.2,19.9,55.2z"/>
		<path class="st1" d="M26,55.2c-0.8,0-1.4-0.6-1.4-1.4s0.6-1.4,1.4-1.4c0.7,0,1.4,0.6,1.4,1.4S26.7,55.2,26,55.2z"/>
		<path class="st1" d="M32,55.2c-0.8,0-1.4-0.6-1.4-1.4s0.6-1.4,1.4-1.4s1.4,0.6,1.4,1.4S32.8,55.2,32,55.2z"/>
		<path class="st1" d="M38,55.2c-0.8,0-1.4-0.6-1.4-1.4s0.6-1.4,1.4-1.4s1.4,0.6,1.4,1.4S38.8,55.2,38,55.2z"/>
		<path class="st1" d="M44.1,55.2c-0.8,0-1.4-0.6-1.4-1.4s0.6-1.4,1.4-1.4s1.4,0.6,1.4,1.4S44.8,55.2,44.1,55.2z"/>
	</g>
	<g>
		<g>
			<circle class="st0" cx="32" cy="26.2" r="2.5"/>
			<path class="st0" d="M32,29.8c-2,0-3.6-1.6-3.6-3.6s1.6-3.6,3.6-3.6c2,0,3.6,1.6,3.6,3.6S34,29.8,32,29.8z M32,24.7
				c-0.8,0-1.4,0.6-1.4,1.4s0.6,1.4,1.4,1.4s1.4-0.6,1.4-1.4S32.8,24.7,32,24.7z"/>
		</g>
		<g>
			<path class="st0" d="M19.4,16c-0.3,0-0.6-0.1-0.8-0.3c-0.4-0.4-0.4-1.1,0-1.6C22.2,10.6,27,8.6,32,8.6s9.8,2,13.3,5.5
				c0.4,0.4,0.4,1.1,0,1.6c-0.4,0.4-1.1,0.4-1.6,0c-3.1-3.1-7.3-4.9-11.8-4.9s-8.6,1.7-11.8,4.9C20,15.9,19.7,16,19.4,16z"/>
			<path class="st0" d="M49.7,10.9c-0.3,0-0.6-0.1-0.8-0.3c-4.5-4.5-10.5-7-16.9-7c-6.4,0-12.4,2.5-16.9,7c-0.4,0.4-1.1,0.4-1.6,0
				c-0.4-0.4-0.4-1.1,0-1.6C18.4,4.1,25,1.3,32,1.3c7,0,13.6,2.7,18.5,7.7c0.4,0.4,0.4,1.1,0,1.6C50.3,10.8,50,10.9,49.7,10.9z"/>
			<path class="st0" d="M24.6,21.2c-0.3,0-0.6-0.1-0.8-0.3c-0.4-0.4-0.4-1.1,0-1.6c2.2-2.2,5.1-3.4,8.2-3.4c3.1,0,6,1.2,8.2,3.4
				c0.4,0.4,0.4,1.1,0,1.6c-0.4,0.4-1.1,0.4-1.6,0c-1.8-1.8-4.1-2.7-6.6-2.7c-2.5,0-4.9,1-6.6,2.7C25.2,21.1,24.9,21.2,24.6,21.2z"
				/>
		</g>
	</g>
</g>
</svg>
