<?xml version="1.0" encoding="utf-8"?>
<!-- Generator: Adobe Illustrator 25.2.1, SVG Export Plug-In . SVG Version: 6.00 Build 0)  -->
<svg version="1.1" id="Layer_1" xmlns="http://www.w3.org/2000/svg" xmlns:xlink="http://www.w3.org/1999/xlink" x="0px" y="0px"
	 viewBox="0 0 64 64" style="enable-background:new 0 0 64 64;" xml:space="preserve">
<style type="text/css">
	.st0{fill:#616262;}
	.st1{fill:#EB203D;}
</style>
<g>
	<path class="st0" d="M60.7,57.7H3.3c-1.4,0-2.6-1.1-2.6-2.6v-8.6c0-1.4,1.1-2.6,2.6-2.6h57.5c1.4,0,2.6,1.1,2.6,2.6v8.6
		C63.3,56.6,62.1,57.7,60.7,57.7z M3.3,46.2c-0.2,0-0.4,0.2-0.4,0.4v8.6c0,0.2,0.2,0.4,0.4,0.4h57.5c0.2,0,0.4-0.2,0.4-0.4v-8.6
		c0-0.2-0.2-0.4-0.4-0.4H3.3z"/>
	<path class="st0" d="M7.1,46.2c-0.3,0-0.5-0.1-0.7-0.3c-0.4-0.4-0.5-1.1-0.1-1.6l4.3-4.7c0.4-0.4,1.1-0.5,1.6-0.1s0.5,1.1,0.1,1.6
		l-4.3,4.7C7.7,46.1,7.4,46.2,7.1,46.2z"/>
	<path class="st0" d="M56.7,46.2c-0.3,0-0.6-0.1-0.8-0.4l-4.3-4.7c-0.4-0.4-0.4-1.1,0.1-1.6c0.4-0.4,1.1-0.4,1.6,0.1l4.3,4.7
		c0.4,0.4,0.4,1.1-0.1,1.6C57.2,46.1,57,46.2,56.7,46.2z"/>
	<g>
		<path class="st0" d="M5.7,50.3c-0.5,0-1-0.4-1-1s0.4-1,1-1s1,0.4,1,1S6.3,50.3,5.7,50.3z"/>
		<path class="st0" d="M5.7,53.4c-0.5,0-1-0.4-1-1s0.4-1,1-1s1,0.4,1,1S6.3,53.4,5.7,53.4z"/>
		<path class="st0" d="M58.3,50.3c-0.5,0-1-0.4-1-1s0.4-1,1-1s1,0.4,1,1S58.8,50.3,58.3,50.3z"/>
		<path class="st0" d="M58.3,53.4c-0.5,0-1-0.4-1-1s0.4-1,1-1s1,0.4,1,1S58.8,53.4,58.3,53.4z"/>
		<path class="st1" d="M51.3,50.3h-2.6c-0.4,0-0.7-0.3-0.7-0.7v-0.5c0-0.4,0.3-0.7,0.7-0.7h2.6c0.4,0,0.7,0.3,0.7,0.7v0.5
			C52,50,51.7,50.3,51.3,50.3z"/>
		<path class="st1" d="M51.3,53.4h-2.6c-0.4,0-0.7-0.3-0.7-0.7v-0.5c0-0.4,0.3-0.7,0.7-0.7h2.6c0.4,0,0.7,0.3,0.7,0.7v0.5
			C52,53.1,51.7,53.4,51.3,53.4z"/>
		<path class="st1" d="M45.2,50.3h-2.6c-0.4,0-0.7-0.3-0.7-0.7v-0.5c0-0.4,0.3-0.7,0.7-0.7h2.6c0.4,0,0.7,0.3,0.7,0.7v0.5
			C45.9,50,45.6,50.3,45.2,50.3z"/>
		<path class="st1" d="M45.2,53.4h-2.6c-0.4,0-0.7-0.3-0.7-0.7v-0.5c0-0.4,0.3-0.7,0.7-0.7h2.6c0.4,0,0.7,0.3,0.7,0.7v0.5
			C45.9,53.1,45.6,53.4,45.2,53.4z"/>
		<g>
			<rect x="11.6" y="49.1" class="st1" width="5.2" height="3.7"/>
			<path class="st1" d="M16.8,53.4h-5.2c-0.4,0-0.7-0.3-0.7-0.7v-3.7c0-0.4,0.3-0.7,0.7-0.7h5.2c0.4,0,0.7,0.3,0.7,0.7v3.7
				C17.5,53.1,17.2,53.4,16.8,53.4z M12.3,52H16v-2.2h-3.7V52z"/>
		</g>
		<g>
			<rect x="20.2" y="49.1" class="st1" width="5.2" height="3.7"/>
			<path class="st1" d="M25.3,53.4h-5.2c-0.4,0-0.7-0.3-0.7-0.7v-3.7c0-0.4,0.3-0.7,0.7-0.7h5.2c0.4,0,0.7,0.3,0.7,0.7v3.7
				C26.1,53.1,25.7,53.4,25.3,53.4z M20.9,52h3.7v-2.2h-3.7V52z"/>
		</g>
	</g>
	<path class="st0" d="M60.7,41.6H3.3c-1.4,0-2.6-1.1-2.6-2.6v-8.6c0-1.4,1.1-2.6,2.6-2.6h57.5c1.4,0,2.6,1.1,2.6,2.6V39
		C63.3,40.4,62.1,41.6,60.7,41.6z M3.3,30.1c-0.2,0-0.4,0.2-0.4,0.4V39c0,0.2,0.2,0.4,0.4,0.4h57.5c0.2,0,0.4-0.2,0.4-0.4v-8.6
		c0-0.2-0.2-0.4-0.4-0.4H3.3z"/>
	<path class="st0" d="M7.1,30.1c-0.3,0-0.5-0.1-0.7-0.3c-0.4-0.4-0.5-1.1-0.1-1.6l4.3-4.7c0.4-0.4,1.1-0.5,1.6-0.1s0.5,1.1,0.1,1.6
		l-4.3,4.7C7.7,29.9,7.4,30.1,7.1,30.1z"/>
	<path class="st0" d="M56.7,30.1c-0.3,0-0.6-0.1-0.8-0.4L51.6,25c-0.4-0.4-0.4-1.1,0.1-1.6c0.4-0.4,1.1-0.4,1.6,0.1l4.3,4.7
		c0.4,0.4,0.4,1.1-0.1,1.6C57.2,30,57,30.1,56.7,30.1z"/>
	<g>
		<path class="st0" d="M5.7,34.1c-0.5,0-1-0.4-1-1s0.4-1,1-1s1,0.4,1,1S6.3,34.1,5.7,34.1z"/>
		<path class="st0" d="M5.7,37.3c-0.5,0-1-0.4-1-1s0.4-1,1-1s1,0.4,1,1S6.3,37.3,5.7,37.3z"/>
		<path class="st0" d="M58.3,34.1c-0.5,0-1-0.4-1-1s0.4-1,1-1s1,0.4,1,1S58.8,34.1,58.3,34.1z"/>
		<path class="st0" d="M58.3,37.3c-0.5,0-1-0.4-1-1s0.4-1,1-1s1,0.4,1,1S58.8,37.3,58.3,37.3z"/>
		<path class="st1" d="M51.3,34.1h-2.6c-0.4,0-0.7-0.3-0.7-0.7v-0.5c0-0.4,0.3-0.7,0.7-0.7h2.6c0.4,0,0.7,0.3,0.7,0.7v0.5
			C52,33.8,51.7,34.1,51.3,34.1z"/>
		<path class="st1" d="M51.3,37.3h-2.6c-0.4,0-0.7-0.3-0.7-0.7V36c0-0.4,0.3-0.7,0.7-0.7h2.6c0.4,0,0.7,0.3,0.7,0.7v0.5
			C52,36.9,51.7,37.3,51.3,37.3z"/>
		<path class="st1" d="M45.2,34.1h-2.6c-0.4,0-0.7-0.3-0.7-0.7v-0.5c0-0.4,0.3-0.7,0.7-0.7h2.6c0.4,0,0.7,0.3,0.7,0.7v0.5
			C45.9,33.8,45.6,34.1,45.2,34.1z"/>
		<path class="st1" d="M45.2,37.3h-2.6c-0.4,0-0.7-0.3-0.7-0.7V36c0-0.4,0.3-0.7,0.7-0.7h2.6c0.4,0,0.7,0.3,0.7,0.7v0.5
			C45.9,36.9,45.6,37.3,45.2,37.3z"/>
		<g>
			<rect x="11.6" y="32.9" class="st1" width="5.2" height="3.7"/>
			<path class="st1" d="M16.8,37.3h-5.2c-0.4,0-0.7-0.3-0.7-0.7v-3.7c0-0.4,0.3-0.7,0.7-0.7h5.2c0.4,0,0.7,0.3,0.7,0.7v3.7
				C17.5,36.9,17.2,37.3,16.8,37.3z M12.3,35.8H16v-2.2h-3.7V35.8z"/>
		</g>
		<g>
			<rect x="20.2" y="32.9" class="st1" width="5.2" height="3.7"/>
			<path class="st1" d="M25.3,37.3h-5.2c-0.4,0-0.7-0.3-0.7-0.7v-3.7c0-0.4,0.3-0.7,0.7-0.7h5.2c0.4,0,0.7,0.3,0.7,0.7v3.7
				C26.1,36.9,25.7,37.3,25.3,37.3z M20.9,35.8h3.7v-2.2h-3.7V35.8z"/>
		</g>
	</g>
	<path class="st0" d="M60.7,25.4H3.3c-1.4,0-2.6-1.1-2.6-2.6v-8.6c0-1.4,1.1-2.6,2.6-2.6h57.5c1.4,0,2.6,1.1,2.6,2.6v8.6
		C63.3,24.2,62.1,25.4,60.7,25.4z M3.3,13.9c-0.2,0-0.4,0.2-0.4,0.4v8.6c0,0.2,0.2,0.4,0.4,0.4h57.5c0.2,0,0.4-0.2,0.4-0.4v-8.6
		c0-0.2-0.2-0.4-0.4-0.4H3.3z"/>
	<path class="st0" d="M56.7,13.9c-0.3,0-0.5-0.1-0.7-0.3l-5.5-5.1h-37l-5.5,5.1C7.4,14,6.7,14,6.3,13.5c-0.4-0.4-0.4-1.1,0.1-1.6
		l5.9-5.4c0.2-0.2,0.5-0.3,0.7-0.3h37.9c0.3,0,0.5,0.1,0.7,0.3l5.9,5.4c0.4,0.4,0.5,1.1,0.1,1.6C57.3,13.8,57,13.9,56.7,13.9z"/>
	<g>
		<path class="st0" d="M5.7,18c-0.5,0-1-0.4-1-1s0.4-1,1-1s1,0.4,1,1S6.3,18,5.7,18z"/>
		<path class="st0" d="M5.7,21.1c-0.5,0-1-0.4-1-1s0.4-1,1-1s1,0.4,1,1S6.3,21.1,5.7,21.1z"/>
		<path class="st0" d="M58.3,18c-0.5,0-1-0.4-1-1s0.4-1,1-1s1,0.4,1,1S58.8,18,58.3,18z"/>
		<path class="st0" d="M58.3,21.1c-0.5,0-1-0.4-1-1s0.4-1,1-1s1,0.4,1,1S58.8,21.1,58.3,21.1z"/>
		<path class="st1" d="M51.3,18h-2.6c-0.4,0-0.7-0.3-0.7-0.7v-0.5c0-0.4,0.3-0.7,0.7-0.7h2.6c0.4,0,0.7,0.3,0.7,0.7v0.5
			C52,17.6,51.7,18,51.3,18z"/>
		<path class="st1" d="M51.3,21.1h-2.6c-0.4,0-0.7-0.3-0.7-0.7v-0.5c0-0.4,0.3-0.7,0.7-0.7h2.6c0.4,0,0.7,0.3,0.7,0.7v0.5
			C52,20.8,51.7,21.1,51.3,21.1z"/>
		<path class="st1" d="M45.2,18h-2.6c-0.4,0-0.7-0.3-0.7-0.7v-0.5c0-0.4,0.3-0.7,0.7-0.7h2.6c0.4,0,0.7,0.3,0.7,0.7v0.5
			C45.9,17.6,45.6,18,45.2,18z"/>
		<path class="st1" d="M45.2,21.1h-2.6c-0.4,0-0.7-0.3-0.7-0.7v-0.5c0-0.4,0.3-0.7,0.7-0.7h2.6c0.4,0,0.7,0.3,0.7,0.7v0.5
			C45.9,20.8,45.6,21.1,45.2,21.1z"/>
		<g>
			<rect x="11.6" y="16.7" class="st1" width="5.2" height="3.7"/>
			<path class="st1" d="M16.8,21.1h-5.2c-0.4,0-0.7-0.3-0.7-0.7v-3.7c0-0.4,0.3-0.7,0.7-0.7h5.2c0.4,0,0.7,0.3,0.7,0.7v3.7
				C17.5,20.8,17.2,21.1,16.8,21.1z M12.3,19.6H16v-2.2h-3.7V19.6z"/>
		</g>
		<g>
			<rect x="20.2" y="16.7" class="st1" width="5.2" height="3.7"/>
			<path class="st1" d="M25.3,21.1h-5.2c-0.4,0-0.7-0.3-0.7-0.7v-3.7c0-0.4,0.3-0.7,0.7-0.7h5.2c0.4,0,0.7,0.3,0.7,0.7v3.7
				C26.1,20.8,25.7,21.1,25.3,21.1z M20.9,19.6h3.7v-2.2h-3.7V19.6z"/>
		</g>
	</g>
</g>
</svg>
