<?xml version="1.0" encoding="utf-8"?>
<!-- Generator: Adobe Illustrator 25.2.1, SVG Export Plug-In . SVG Version: 6.00 Build 0)  -->
<svg version="1.1" id="Layer_1" xmlns="http://www.w3.org/2000/svg" xmlns:xlink="http://www.w3.org/1999/xlink" x="0px" y="0px"
	 viewBox="0 0 64 64" style="enable-background:new 0 0 64 64;" xml:space="preserve">
<style type="text/css">
	.st0{fill:#616262;}
	.st1{fill:none;stroke:#616262;stroke-width:2.1976;stroke-linecap:round;stroke-linejoin:round;stroke-miterlimit:10;}
	.st2{fill:#EB203D;}
	.st3{fill:#616262;stroke:#616262;stroke-width:2.1976;stroke-linecap:round;stroke-linejoin:round;stroke-miterlimit:10;}
</style>
<g>
	<g>
		<path class="st0" d="M44.6,36.3c-0.3,0-0.6-0.1-0.8-0.3c-0.4-0.4-0.4-1.1,0-1.6c3.1-3.1,4.9-7.3,4.9-11.8c0-4.5-1.7-8.6-4.9-11.8
			c-0.4-0.4-0.4-1.1,0-1.6c0.4-0.4,1.1-0.4,1.6,0c3.6,3.6,5.5,8.3,5.5,13.3c0,5-2,9.8-5.5,13.3C45.1,36.2,44.8,36.3,44.6,36.3z"/>
		<path class="st0" d="M49.7,41.4c-0.3,0-0.6-0.1-0.8-0.3c-0.4-0.4-0.4-1.1,0-1.6c4.5-4.5,7-10.5,7-16.9c0-6.4-2.5-12.4-7-16.9
			c-0.4-0.4-0.4-1.1,0-1.6c0.4-0.4,1.1-0.4,1.6,0c4.9,4.9,7.7,11.5,7.7,18.5s-2.7,13.6-7.7,18.5C50.3,41.3,50,41.4,49.7,41.4z"/>
		<path class="st0" d="M19.4,36.3c-0.3,0-0.6-0.1-0.8-0.3c-3.6-3.6-5.5-8.3-5.5-13.3c0-5,2-9.8,5.5-13.3c0.4-0.4,1.1-0.4,1.6,0
			c0.4,0.4,0.4,1.1,0,1.6c-3.1,3.1-4.9,7.3-4.9,11.8c0,4.5,1.7,8.6,4.9,11.8c0.4,0.4,0.4,1.1,0,1.6C20,36.2,19.7,36.3,19.4,36.3z"/>
		<path class="st0" d="M14.3,41.4c-0.3,0-0.6-0.1-0.8-0.3c-4.9-4.9-7.7-11.5-7.7-18.5S8.6,9.1,13.5,4.1c0.4-0.4,1.1-0.4,1.6,0
			c0.4,0.4,0.4,1.1,0,1.6c-4.5,4.5-7,10.5-7,16.9c0,6.4,2.5,12.4,7,16.9c0.4,0.4,0.4,1.1,0,1.6C14.8,41.3,14.6,41.4,14.3,41.4z"/>
		<path class="st0" d="M39.4,31.1c-0.3,0-0.6-0.1-0.8-0.3c-0.4-0.4-0.4-1.1,0-1.6c1.8-1.8,2.7-4.1,2.7-6.6s-1-4.9-2.7-6.6
			c-0.4-0.4-0.4-1.1,0-1.6c0.4-0.4,1.1-0.4,1.6,0c2.2,2.2,3.4,5.1,3.4,8.2s-1.2,6-3.4,8.2C40,31,39.7,31.1,39.4,31.1z"/>
		<path class="st0" d="M24.6,31.1c-0.3,0-0.6-0.1-0.8-0.3c-2.2-2.2-3.4-5.1-3.4-8.2s1.2-6,3.4-8.2c0.4-0.4,1.1-0.4,1.6,0
			c0.4,0.4,0.4,1.1,0,1.6c-1.8,1.8-2.7,4.1-2.7,6.6s1,4.9,2.7,6.6c0.4,0.4,0.4,1.1,0,1.6C25.2,31,24.9,31.1,24.6,31.1z"/>
	</g>
	<path class="st0" d="M32,27.6c-2.7,0-5-2.2-5-5s2.2-5,5-5s5,2.2,5,5S34.7,27.6,32,27.6z M32,19.8c-1.5,0-2.8,1.2-2.8,2.8
		s1.2,2.8,2.8,2.8s2.8-1.2,2.8-2.8S33.5,19.8,32,19.8z"/>
	<g>
		<path class="st0" d="M43.4,60.2c-0.5,0-0.9-0.3-1.1-0.8L32.3,26.6c-0.2-0.6,0.1-1.2,0.7-1.4c0.6-0.2,1.2,0.1,1.4,0.7l10.1,32.9
			c0.2,0.6-0.1,1.2-0.7,1.4C43.6,60.2,43.5,60.2,43.4,60.2z"/>
		<path class="st0" d="M20.6,60.2c-0.1,0-0.2,0-0.3,0c-0.6-0.2-0.9-0.8-0.7-1.4l10.1-32.9c0.2-0.6,0.8-0.9,1.4-0.7
			c0.6,0.2,0.9,0.8,0.7,1.4L21.6,59.4C21.5,59.9,21.1,60.2,20.6,60.2z"/>
	</g>
	<g>
		<g>
			<path class="st0" d="M43.3,60.2c-0.2,0-0.4,0-0.5-0.1L23.4,49.7c-0.3-0.1-0.5-0.4-0.6-0.7c-0.1-0.5,0.1-1,0.5-1.2l14.1-7.5
				c0.5-0.3,1.2-0.1,1.5,0.5c0.3,0.5,0.1,1.2-0.5,1.5l-12.3,6.6l17.7,9.4c0.5,0.3,0.7,1,0.5,1.5C44.1,60,43.7,60.2,43.3,60.2z"/>
			<path class="st0" d="M20.6,60.2c-0.4,0-0.8-0.2-1-0.6c-0.3-0.5-0.1-1.2,0.5-1.5l17.8-9.4l-12.3-6.5c-0.5-0.3-0.7-1-0.5-1.5
				c0.3-0.5,1-0.7,1.5-0.5l14.1,7.5c0.4,0.2,0.7,0.7,0.5,1.2c-0.1,0.4-0.3,0.6-0.7,0.8L21.1,60.1C20.9,60.2,20.8,60.2,20.6,60.2z"/>
		</g>
	</g>
	<path class="st0" d="M36.2,36.6h-8.4c-0.6,0-1.1-0.5-1.1-1.1s0.5-1.1,1.1-1.1h8.4c0.6,0,1.1,0.5,1.1,1.1S36.8,36.6,36.2,36.6z"/>
</g>
</svg>
