<?xml version="1.0" encoding="utf-8"?>
<!-- Generator: Adobe Illustrator 25.2.1, SVG Export Plug-In . SVG Version: 6.00 Build 0)  -->
<svg version="1.1" id="Layer_1" xmlns="http://www.w3.org/2000/svg" xmlns:xlink="http://www.w3.org/1999/xlink" x="0px" y="0px"
	 viewBox="0 0 64 64" style="enable-background:new 0 0 64 64;" xml:space="preserve">
<style type="text/css">
	.st0{fill:#616262;}
	.st1{fill:#EB203D;}
	.st2{fill:#616262;stroke:#616262;stroke-width:2.1976;stroke-linecap:round;stroke-linejoin:round;stroke-miterlimit:10;}
</style>
<g>
	<path class="st0" d="M51.3,29.9H4.6c-2.2,0-4-1.8-4-4V14.7c0-2.2,1.8-4,4-4h46.7c2.2,0,4,1.8,4,4v11.2
		C55.3,28.1,53.5,29.9,51.3,29.9z M4.6,12.8c-1,0-1.8,0.8-1.8,1.8v11.2c0,1,0.8,1.8,1.8,1.8h46.7c1,0,1.8-0.8,1.8-1.8V14.7
		c0-1-0.8-1.8-1.8-1.8H4.6z"/>
	<g>
		<path class="st0" d="M16.1,42.2H1.7c-0.6,0-1.1-0.5-1.1-1.1v-3c0-2.2,1.8-4,4-4h11.5c0.6,0,1.1,0.5,1.1,1.1v5.9
			C17.2,41.7,16.7,42.2,16.1,42.2z M2.8,40H15v-3.7H4.6c-1,0-1.8,0.8-1.8,1.8V40z"/>
		<path class="st0" d="M16.1,53.4H4.6c-2.2,0-4-1.8-4-4v-3c0-0.6,0.5-1.1,1.1-1.1h14.4c0.6,0,1.1,0.5,1.1,1.1v5.9
			C17.2,52.9,16.7,53.4,16.1,53.4z M2.8,47.5v1.9c0,1,0.8,1.8,1.8,1.8H15v-3.7H2.8z"/>
		<path class="st0" d="M62.3,49.1H46.1c-0.6,0-1.1-0.5-1.1-1.1v-8.4c0-0.6,0.5-1.1,1.1-1.1h16.2c0.6,0,1.1,0.5,1.1,1.1V48
			C63.4,48.6,62.9,49.1,62.3,49.1z M47.2,46.9h14v-6.2h-14V46.9z"/>
		<g>
			<path class="st0" d="M22.7,46.7c-1.6,0-2.9-1.3-2.9-2.9s1.3-2.9,2.9-2.9s2.9,1.3,2.9,2.9S24.3,46.7,22.7,46.7z M22.7,42.3
				c-0.8,0-1.4,0.7-1.4,1.5c0,0.8,0.6,1.5,1.4,1.5s1.4-0.7,1.4-1.5C24.1,42.9,23.5,42.3,22.7,42.3z"/>
			<path class="st0" d="M38.2,46.7c-1.6,0-2.9-1.3-2.9-2.9s1.3-2.9,2.9-2.9c1.6,0,2.9,1.3,2.9,2.9S39.8,46.7,38.2,46.7z M38.2,42.3
				c-0.8,0-1.4,0.7-1.4,1.5c0,0.8,0.6,1.5,1.4,1.5c0.8,0,1.4-0.7,1.4-1.5C39.7,42.9,39,42.3,38.2,42.3z"/>
		</g>
		<g>
			<path class="st0" d="M54.2,40.4c-0.6,0-1.1-0.5-1.1-1.1v-1.2c0-1-0.8-1.8-1.8-1.8H16.1c-0.6,0-1.1-0.5-1.1-1.1s0.5-1.1,1.1-1.1
				h35.3c2.2,0,4,1.8,4,4v1.2C55.3,40,54.8,40.4,54.2,40.4z"/>
			<path class="st0" d="M51.3,53.4H16.1c-0.6,0-1.1-0.5-1.1-1.1s0.5-1.1,1.1-1.1h35.3c1,0,1.8-0.8,1.8-1.8v-1.3
				c0-0.6,0.5-1.1,1.1-1.1s1.1,0.5,1.1,1.1v1.3C55.3,51.6,53.5,53.4,51.3,53.4z"/>
			<path class="st0" d="M1.7,47.5c-0.6,0-1.1-0.5-1.1-1.1v-5.2c0-0.6,0.5-1.1,1.1-1.1s1.1,0.5,1.1,1.1v5.2C2.8,47,2.3,47.5,1.7,47.5
				z"/>
		</g>
	</g>
</g>
</svg>
