<?xml version="1.0" encoding="utf-8"?>
<!-- Generator: Adobe Illustrator 25.2.1, SVG Export Plug-In . SVG Version: 6.00 Build 0)  -->
<svg version="1.1" id="Layer_1" xmlns="http://www.w3.org/2000/svg" xmlns:xlink="http://www.w3.org/1999/xlink" x="0px" y="0px"
	 viewBox="0 0 64 64" style="enable-background:new 0 0 64 64;" xml:space="preserve">
<style type="text/css">
	.st0{fill:#EB203D;}
	.st1{fill:#616262;}
</style>
<g>
	<g>
		<g>
			<path class="st0" d="M13.3,50.7l11.2-11.2c1.9,1.9,4.6,3.1,7.5,3.1v15.8C24,58.5,18.4,55.8,13.3,50.7z"/>
			<path class="st0" d="M32.7,59.2H32c-7.9,0-13.6-2.4-19.2-8l-0.5-0.5l12.2-12.2L25,39c1.8,1.8,4.4,2.9,7,2.9h0.7V59.2z M14.3,50.7
				c5,4.7,10.1,6.9,16.9,7V43.3c-2.5-0.2-4.9-1.2-6.8-2.8L14.3,50.7z"/>
		</g>
		<g>
			<path class="st0" d="M32,5.5c7.5,0,16.2,4.8,18.7,7.7L39.5,24.5c-1.6-1.7-4.3-3.1-7.5-3.1L32,5.5L32,5.5z"/>
			<path class="st0" d="M39.5,25.6L39,25c-1.6-1.8-4.2-2.9-7-2.9h-0.7V4.8H32c7.5,0,16.5,4.7,19.3,8l0.4,0.5L39.5,25.6z M32.7,20.7
				c2.6,0.2,5,1.2,6.8,2.8l10.2-10.2c-2.9-2.9-10.5-6.7-17-7L32.7,20.7z"/>
		</g>
	</g>
	<path class="st1" d="M32,59.6C16.8,59.6,4.4,47.2,4.4,32S16.8,4.4,32,4.4S59.6,16.8,59.6,32S47.2,59.6,32,59.6z M32,6.6
		C18,6.6,6.6,18,6.6,32S18,57.4,32,57.4C46,57.4,57.4,46,57.4,32S46,6.6,32,6.6z"/>
	<path class="st1" d="M32,38.5c-3.6,0-6.5-2.9-6.5-6.5s2.9-6.5,6.5-6.5s6.5,2.9,6.5,6.5S35.6,38.5,32,38.5z M32,27c-2.8,0-5,2.2-5,5
		c0,2.8,2.2,5,5,5s5-2.2,5-5C37,29.2,34.8,27,32,27z"/>
	<path class="st1" d="M32,43.4c-6.3,0-11.4-5.1-11.4-11.4S25.7,20.6,32,20.6c6.3,0,11.4,5.1,11.4,11.4S38.3,43.4,32,43.4z M32,22.1
		c-5.5,0-9.9,4.4-9.9,9.9s4.4,9.9,9.9,9.9s9.9-4.4,9.9-9.9S37.5,22.1,32,22.1z"/>
</g>
</svg>
