<?xml version="1.0" encoding="utf-8"?>
<!-- Generator: Adobe Illustrator 25.2.1, SVG Export Plug-In . SVG Version: 6.00 Build 0)  -->
<svg version="1.1" id="Layer_1" xmlns="http://www.w3.org/2000/svg" xmlns:xlink="http://www.w3.org/1999/xlink" x="0px" y="0px"
	 viewBox="0 0 64 64" style="enable-background:new 0 0 64 64;" xml:space="preserve">
<style type="text/css">
	.st0{fill:#616262;}
</style>
<g>
	<path class="st0" d="M32,59.6C16.8,59.6,4.4,47.2,4.4,32S16.8,4.4,32,4.4S59.6,16.8,59.6,32S47.2,59.6,32,59.6z M32,6.6
		C18,6.6,6.6,18,6.6,32S18,57.4,32,57.4S57.4,46,57.4,32S46,6.6,32,6.6z"/>
	<path class="st0" d="M32,38.5c-3.6,0-6.5-2.9-6.5-6.5s2.9-6.5,6.5-6.5s6.5,2.9,6.5,6.5S35.6,38.5,32,38.5z M32,27c-2.8,0-5,2.2-5,5
		s2.2,5,5,5s5-2.2,5-5S34.8,27,32,27z"/>
	<path class="st0" d="M32,43.4c-6.3,0-11.4-5.1-11.4-11.4S25.7,20.6,32,20.6S43.4,25.7,43.4,32S38.3,43.4,32,43.4z M32,22.1
		c-5.5,0-9.9,4.4-9.9,9.9s4.4,9.9,9.9,9.9s9.9-4.4,9.9-9.9S37.5,22.1,32,22.1z"/>
	<g>
		<path class="st0" d="M13.3,51.4c-0.2,0-0.4-0.1-0.5-0.2c-0.3-0.3-0.3-0.8,0-1L24,39c0.3-0.3,0.8-0.3,1,0s0.3,0.8,0,1L13.8,51.2
			C13.7,51.4,13.5,51.4,13.3,51.4z"/>
		<path class="st0" d="M32,59.2c-0.4,0-0.7-0.3-0.7-0.7V42.6c0-0.4,0.3-0.7,0.7-0.7s0.7,0.3,0.7,0.7v15.8
			C32.7,58.9,32.4,59.2,32,59.2z"/>
		<path class="st0" d="M39.5,25.2c-0.2,0-0.4-0.1-0.5-0.2c-0.3-0.3-0.3-0.8,0-1l11.2-11.2c0.3-0.3,0.8-0.3,1,0s0.3,0.8,0,1L40,25
			C39.9,25.2,39.7,25.2,39.5,25.2z"/>
		<path class="st0" d="M32,22.1c-0.4,0-0.7-0.3-0.7-0.7V5.5c0-0.4,0.3-0.7,0.7-0.7s0.7,0.3,0.7,0.7v15.8
			C32.7,21.8,32.4,22.1,32,22.1z"/>
	</g>
</g>
</svg>
