<svg id="Camada_1" data-name="Camada 1" xmlns="http://www.w3.org/2000/svg" viewBox="0 0 70 70"><defs><style>.cls-1{fill:none;stroke:#606161;stroke-linecap:round;stroke-linejoin:round;stroke-width:2px;}.cls-2{fill:#ec1d3c;}</style></defs><path class="cls-1" d="M62,54.29a1,1,0,0,1-.79.35H3.12c-.18-.13-.1-.32-.1-.48Q3,35,3,15.89c0-.42.13-.52.54-.52l59.57,0c.16,0,.41-.11.47.1s-.17.37-.34.5a14.73,14.73,0,0,0-3.51,3.83,12,12,0,0,0-1.87,5.59,8.21,8.21,0,0,0,1.64,5.53,30.58,30.58,0,0,0,2.57,3,20.16,20.16,0,0,1,3.78,4.92S70.21,47.83,62,54.29Z"/><path class="cls-2" d="M29.88,26.78c0-1.87,0-3.73,0-5.59,0-.4.1-.52.5-.5q1.08,0,2.16,0c.35,0,.45.09.45.44,0,1.37,0,2.75,0,4.12,0,.4.11.51.5.49.79,0,1.59,0,2.38,0,.32,0,.42-.09.41-.41,0-1.39,0-2.78,0-4.17,0-.37.11-.48.47-.47.74,0,1.48,0,2.22,0,.27,0,.41,0,.41.36q0,5.75,0,11.5c0,.28-.1.36-.37.36-.77,0-1.55,0-2.32,0-.34,0-.41-.13-.41-.43,0-1.46,0-2.92,0-4.38,0-.4-.11-.51-.51-.49-.79,0-1.58,0-2.37,0-.32,0-.42.1-.42.42,0,1.46,0,2.92,0,4.38,0,.39-.1.52-.5.5q-1.08,0-2.16,0c-.35,0-.45-.1-.45-.45C29.89,30.57,29.88,28.68,29.88,26.78Z"/><path class="cls-2" d="M50.9,23.28a4.44,4.44,0,0,0-4.3-2.76,4.4,4.4,0,0,0-4.48,2.65A8.85,8.85,0,0,0,42,30.25a4.42,4.42,0,0,0,4.62,2.83A4.49,4.49,0,0,0,51,30a9,9,0,0,0,.53-3.21A8.33,8.33,0,0,0,50.9,23.28Zm-2.85,6.45A1.64,1.64,0,0,1,46.51,31a1.48,1.48,0,0,1-1.38-.8,4.06,4.06,0,0,1-.48-1.5,12.9,12.9,0,0,1,.13-4.51,2.83,2.83,0,0,1,.45-1.06,1.49,1.49,0,0,1,2.52.05,4.61,4.61,0,0,1,.62,2.1c.05.51.06,1,.07,1.39A9.62,9.62,0,0,1,48.05,29.73Z"/><path class="cls-2" d="M27.28,23.55a4.48,4.48,0,0,0-4.23-3A4.42,4.42,0,0,0,18.45,23a8.64,8.64,0,0,0,.06,7.65,4.34,4.34,0,0,0,4.32,2.39A4.42,4.42,0,0,0,27,30.59a8.47,8.47,0,0,0,.79-4.11A8.14,8.14,0,0,0,27.28,23.55ZM24.52,29a3.43,3.43,0,0,1-.45,1.24,1.52,1.52,0,0,1-2.65,0,4.74,4.74,0,0,1-.59-2.27c0-.4,0-.81,0-1.21a8.44,8.44,0,0,1,.3-2.87,2.94,2.94,0,0,1,.4-.79,1.48,1.48,0,0,1,2.4,0,3.18,3.18,0,0,1,.58,1.45A12.6,12.6,0,0,1,24.52,29Z"/><path class="cls-2" d="M39.94,40.61v3.48a3.81,3.81,0,0,1-3.64,4.22,5.42,5.42,0,0,1-3.57-.6,3.29,3.29,0,0,1-1.81-2.91c0-2.83,0-5.66,0-8.49,0-.29.11-.36.37-.36.76,0,1.52,0,2.27,0,.39,0,.47.13.46.48,0,2.59,0,5.17,0,7.76a4.63,4.63,0,0,0,0,.74,1.55,1.55,0,0,0,3,0,5.1,5.1,0,0,0,0-.68q0-3.89,0-7.75c0-.4.07-.57.51-.54a16.31,16.31,0,0,0,1.85,0c.38,0,.51.08.5.49C39.93,37.83,39.94,39.22,39.94,40.61Z"/><path class="cls-2" d="M15.13,36a10.48,10.48,0,0,0-5.58.28.55.55,0,0,0-.45.63c0,1.8,0,3.59,0,5.39s0,3.59,0,5.38c0,.37.1.48.47.47.7,0,1.41,0,2.11,0,.32,0,.47,0,.46-.42,0-1.23,0-2.46,0-3.69,0-.36.08-.49.47-.45a7.2,7.2,0,0,0,2.61-.19,3.66,3.66,0,0,0,2.87-3.8A3.5,3.5,0,0,0,15.13,36Zm-2.79,5.9c-.19,0-.21-.14-.21-.29,0-1.27,0-2.53,0-3.79,0-.29.15-.35.38-.38,2.06-.26,2.66.67,2.64,2.19A2.13,2.13,0,0,1,12.34,41.93Z"/><path class="cls-2" d="M11.51,33.08a7.2,7.2,0,0,1-2.9-.52c-.27-.13-.37-.26-.24-.56s.32-.85.45-1.29.21-.32.48-.19a3.68,3.68,0,0,0,2.26.34,1.41,1.41,0,0,0,.59-2.58,8,8,0,0,0-1.39-.72,3.58,3.58,0,0,1,.3-6.83,6.16,6.16,0,0,1,4.08.28c.32.12.45.27.28.62s-.2.95-.49,1.19-.73-.22-1.14-.27a4.64,4.64,0,0,0-1-.07,1.29,1.29,0,0,0-1.26.87A1.44,1.44,0,0,0,11.94,25a5.18,5.18,0,0,0,1.24.69c.31.15.64.29.94.46A3.34,3.34,0,0,1,16,29.54a3.62,3.62,0,0,1-2.45,3.2A4.82,4.82,0,0,1,11.51,33.08Z"/><path class="cls-2" d="M44,45.62a4.22,4.22,0,0,0,2.28.54,1.5,1.5,0,0,0,1.5-1A1.42,1.42,0,0,0,47,43.42a10.82,10.82,0,0,0-1.18-.59A3.53,3.53,0,0,1,43.43,39a3.7,3.7,0,0,1,3.29-3.16,6.27,6.27,0,0,1,3.47.44c.3.13.42.29.24.59l0,0c-.15.4-.19.92-.47,1.15s-.72-.22-1.12-.26a3.76,3.76,0,0,0-1.25-.06,1.25,1.25,0,0,0-1.1.93,1.4,1.4,0,0,0,.42,1.49,3.69,3.69,0,0,0,1,.6,14.06,14.06,0,0,1,1.5.76,3.58,3.58,0,0,1,0,6.05,4.6,4.6,0,0,1-1.92.7,7.78,7.78,0,0,1-3.73-.42c-.35-.13-.52-.28-.33-.69S43.78,46.16,44,45.62Z"/><path class="cls-2" d="M24.57,41.1c0,1.54,0,3.09,0,4.64,0,.38.08.52.49.51.77,0,1.55,0,2.32,0,.44,0,.55.14.51.54a7.5,7.5,0,0,0,0,1.06c0,.28-.09.35-.36.35-1.88,0-3.77,0-5.65,0-.42,0-.38-.22-.38-.5V39.93c0-1.17,0-2.35,0-3.53,0-.34.09-.46.44-.45q1.11,0,2.22,0c.36,0,.43.12.43.46C24.56,38,24.57,39.53,24.57,41.1Z"/></svg>