<?xml version="1.0" encoding="utf-8"?>
<!-- Generator: Adobe Illustrator 25.2.1, SVG Export Plug-In . SVG Version: 6.00 Build 0)  -->
<svg version="1.1" id="Layer_1" xmlns="http://www.w3.org/2000/svg" xmlns:xlink="http://www.w3.org/1999/xlink" x="0px" y="0px"
	 viewBox="0 0 64 64" style="enable-background:new 0 0 64 64;" xml:space="preserve">
<style type="text/css">
	.st0{fill:#616262;}
	.st1{fill:none;stroke:#616262;stroke-width:2.1976;stroke-linecap:round;stroke-linejoin:round;stroke-miterlimit:10;}
	.st2{fill:#EB203D;}
	.st3{fill:#616262;stroke:#616262;stroke-width:2.1976;stroke-linecap:round;stroke-linejoin:round;stroke-miterlimit:10;}
</style>
<g>
	<path class="st0" d="M60.6,12.8h-9.9c-1.4,0-2.6-1.1-2.6-2.6V7c0-1.4,1.1-2.6,2.6-2.6h9.9c1.4,0,2.6,1.1,2.6,2.6v3.2
		C63.2,11.7,62.1,12.8,60.6,12.8z M50.7,6.6c-0.2,0-0.4,0.2-0.4,0.4v3.2c0,0.2,0.2,0.4,0.4,0.4h9.9c0.2,0,0.4-0.2,0.4-0.4V7
		c0-0.2-0.2-0.4-0.4-0.4H50.7z"/>
	<path class="st0" d="M13.3,36.2H3.4c-1.4,0-2.6-1.1-2.6-2.6v-3.2c0-1.4,1.1-2.6,2.6-2.6h9.9c1.4,0,2.6,1.1,2.6,2.6v3.2
		C15.8,35,14.7,36.2,13.3,36.2z M3.4,30C3.2,30,3,30.2,3,30.4v3.2C3,33.8,3.2,34,3.4,34h9.9c0.2,0,0.4-0.2,0.4-0.4v-3.2
		c0-0.2-0.2-0.4-0.4-0.4H3.4z"/>
	<path class="st0" d="M60.6,28.4h-9.9c-1.4,0-2.6-1.1-2.6-2.6v-3.2c0-1.4,1.1-2.6,2.6-2.6h9.9c1.4,0,2.6,1.1,2.6,2.6v3.2
		C63.2,27.2,62.1,28.4,60.6,28.4z M50.7,22.2c-0.2,0-0.4,0.2-0.4,0.4v3.2c0,0.2,0.2,0.4,0.4,0.4h9.9c0.2,0,0.4-0.2,0.4-0.4v-3.2
		c0-0.2-0.2-0.4-0.4-0.4H50.7z"/>
	<path class="st0" d="M60.6,44h-9.9c-1.4,0-2.6-1.1-2.6-2.6v-3.2c0-1.4,1.1-2.6,2.6-2.6h9.9c1.4,0,2.6,1.1,2.6,2.6v3.2
		C63.2,42.8,62.1,44,60.6,44z M50.7,37.8c-0.2,0-0.4,0.2-0.4,0.4v3.2c0,0.2,0.2,0.4,0.4,0.4h9.9c0.2,0,0.4-0.2,0.4-0.4v-3.2
		c0-0.2-0.2-0.4-0.4-0.4H50.7z"/>
	<path class="st0" d="M60.6,59.6h-9.9c-1.4,0-2.6-1.1-2.6-2.6v-3.2c0-1.4,1.1-2.6,2.6-2.6h9.9c1.4,0,2.6,1.1,2.6,2.6V57
		C63.2,58.4,62.1,59.6,60.6,59.6z M50.7,53.4c-0.2,0-0.4,0.2-0.4,0.4V57c0,0.2,0.2,0.4,0.4,0.4h9.9c0.2,0,0.4-0.2,0.4-0.4v-3.2
		c0-0.2-0.2-0.4-0.4-0.4H50.7z"/>
	<path class="st0" d="M22.2,33.1c-0.6,0-1.1-0.5-1.1-1.1s0.5-1.1,1.1-1.1c6.1,0,9.3-5.4,12.6-11.1c3.5-6,7.1-12.2,14.5-12.2
		c0.6,0,1.1,0.5,1.1,1.1s-0.5,1.1-1.1,1.1c-6.1,0-9.3,5.4-12.6,11.1C33.2,26.9,29.6,33.1,22.2,33.1z"/>
	<path class="st0" d="M49.3,56.5c-7.4,0-11-6.2-14.5-12.2c-3.3-5.7-6.5-11.1-12.6-11.1c-0.6,0-1.1-0.5-1.1-1.1s0.5-1.1,1.1-1.1
		c7.4,0,11,6.2,14.5,12.2c3.3,5.7,6.5,11.1,12.6,11.1c0.6,0,1.1,0.5,1.1,1.1S49.9,56.5,49.3,56.5z"/>
	<path class="st0" d="M49.3,40.9c-7.1,0-10.6-2.1-14.1-4c-3.4-1.9-6.5-3.8-13-3.8c-0.6,0-1.1-0.5-1.1-1.1s0.5-1.1,1.1-1.1
		c7.1,0,10.6,2.1,14.1,4c3.4,1.9,6.5,3.8,13,3.8c0.6,0,1.1,0.5,1.1,1.1S49.9,40.9,49.3,40.9z"/>
	<path class="st0" d="M22.2,33.1h-7.4c-0.6,0-1.1-0.5-1.1-1.1s0.5-1.1,1.1-1.1h7.4c6.5,0,9.6-1.8,13-3.8c3.5-2,7-4,14.1-4
		c0.6,0,1.1,0.5,1.1,1.1s-0.5,1.1-1.1,1.1c-6.5,0-9.6,1.8-13,3.8C32.8,31,29.2,33.1,22.2,33.1z"/>
</g>
</svg>
